<svg width="496" height="548" viewBox="0 0 496 548" fill="none" xmlns="http://www.w3.org/2000/svg">
<path d="M197.97 219.43C197.97 219.43 134.13 386.98 117.92 429.64C151.83 397.19 301.16 254.37 301.16 254.37C301.16 254.37 390.94 292.7 420.06 305.1C402.79 278.68 349.86 197.83 349.86 197.83C349.86 197.83 384.61 150.58 397.97 132.39C374.44 136.82 304.47 149.95 304.47 149.95L301.97 147.03C301.97 147.03 250.59 85.93 238.64 71.79C232.88 88.17 212.39 146.48 212.39 146.48C212.39 146.48 126.62 159.76 99.1 164.05C123.18 177.49 197.96 219.44 197.96 219.44L197.97 219.43ZM156.89 230.3C153.13 240.89 45.3 547.35 45.3 547.35C45.3 547.35 299.69 300.24 305.81 294.31C313.52 297.6 495.18 374.92 495.18 374.92C495.18 374.92 401.04 206.49 397.29 199.78C401.41 193.48 473.32 83.92 473.32 83.92C473.32 83.92 328.34 112.49 320.9 113.98C316.14 108.11 228.96 0 228.96 0C228.96 0 190.5 111.98 188.05 118.85C180.7 120.16 0 151.17 0 151.17C0 151.17 147.2 225.49 156.89 230.3ZM181.58 225.36C172.5 220.3 59.23 156.83 59.23 156.83C59.23 156.83 195.2 135.74 202.57 134.58C204.92 127.8 233.82 45.55 233.82 45.55C233.82 45.55 304.96 130.02 309.61 135.5C316.67 134.21 428.5 113.27 428.5 113.27C428.5 113.27 370.88 191.58 365.94 198.25C370.67 205.48 455.06 334.36 455.06 334.36C455.06 334.36 311.58 273.21 304 269.99C297.91 275.81 84.73 479.7 84.73 479.7C84.73 479.7 177.69 235.55 181.57 225.37L181.58 225.36Z" fill="#C89211"/>
</svg>
